<mxfile host="Electron" modified="2024-09-14T11:30:30.334Z" agent="Mozilla/5.0 (Windows NT 10.0; Win64; x64) AppleWebKit/537.36 (KHTML, like Gecko) draw.io/24.2.5 Chrome/120.0.6099.109 Electron/28.1.0 Safari/537.36" etag="Q4xT52MsQdPO2_I2McC5" version="24.2.5" type="device">
  <diagram name="Pagina-1" id="w_FWv7704ixgWOhtn0g2">
    <mxGraphModel dx="1418" dy="828" grid="1" gridSize="10" guides="1" tooltips="1" connect="1" arrows="1" fold="1" page="1" pageScale="1" pageWidth="827" pageHeight="1169" math="0" shadow="0">
      <root>
        <mxCell id="0" />
        <mxCell id="1" parent="0" />
        <mxCell id="hCelhC14WA_BUO_WkNJN-18" style="edgeStyle=orthogonalEdgeStyle;rounded=0;orthogonalLoop=1;jettySize=auto;html=1;" parent="1" source="hCelhC14WA_BUO_WkNJN-1" target="hCelhC14WA_BUO_WkNJN-12" edge="1">
          <mxGeometry relative="1" as="geometry" />
        </mxCell>
        <mxCell id="hCelhC14WA_BUO_WkNJN-1" value="External Enviroment" style="image;html=1;image=img/lib/clip_art/general/Earth_globe_128x128.png" parent="1" vertex="1">
          <mxGeometry x="110" y="380" width="80" height="80" as="geometry" />
        </mxCell>
        <mxCell id="hCelhC14WA_BUO_WkNJN-32" style="edgeStyle=orthogonalEdgeStyle;rounded=0;orthogonalLoop=1;jettySize=auto;html=1;" parent="1" source="hCelhC14WA_BUO_WkNJN-2" target="hCelhC14WA_BUO_WkNJN-21" edge="1">
          <mxGeometry relative="1" as="geometry" />
        </mxCell>
        <mxCell id="hCelhC14WA_BUO_WkNJN-2" value="&lt;font style=&quot;font-size: 13px;&quot;&gt;Input&amp;nbsp;&lt;/font&gt;&lt;div style=&quot;font-size: 13px;&quot;&gt;&lt;font style=&quot;font-size: 13px;&quot;&gt;&lt;font style=&quot;font-size: 13px;&quot;&gt;Agen&lt;/font&gt;&lt;span style=&quot;background-color: initial;&quot;&gt;t&lt;/span&gt;&lt;/font&gt;&lt;/div&gt;&lt;div style=&quot;font-size: 13px;&quot;&gt;&lt;span style=&quot;background-color: initial;&quot;&gt;&lt;font style=&quot;font-size: 13px;&quot;&gt;#X&lt;/font&gt;&lt;/span&gt;&lt;/div&gt;" style="triangle;whiteSpace=wrap;html=1;align=left;" parent="1" vertex="1">
          <mxGeometry x="380" y="340" width="80" height="70" as="geometry" />
        </mxCell>
        <mxCell id="hCelhC14WA_BUO_WkNJN-4" value="&lt;font style=&quot;font-size: 13px;&quot;&gt;Input&amp;nbsp;&lt;/font&gt;&lt;div style=&quot;font-size: 13px;&quot;&gt;&lt;font style=&quot;font-size: 13px;&quot;&gt;&lt;font style=&quot;font-size: 13px;&quot;&gt;Agen&lt;/font&gt;&lt;span style=&quot;background-color: initial;&quot;&gt;t&lt;/span&gt;&lt;/font&gt;&lt;/div&gt;&lt;div style=&quot;font-size: 13px;&quot;&gt;&lt;span style=&quot;background-color: initial;&quot;&gt;&lt;font style=&quot;font-size: 13px;&quot;&gt;#Y&lt;/font&gt;&lt;/span&gt;&lt;/div&gt;" style="triangle;whiteSpace=wrap;html=1;align=left;" parent="1" vertex="1">
          <mxGeometry x="380" y="430" width="80" height="70" as="geometry" />
        </mxCell>
        <mxCell id="hCelhC14WA_BUO_WkNJN-12" value="" style="pointerEvents=1;verticalLabelPosition=bottom;shadow=0;dashed=0;align=center;html=1;verticalAlign=top;shape=mxgraph.electrical.waveforms.sine_wave;" parent="1" vertex="1">
          <mxGeometry x="290" y="340" width="20" height="50" as="geometry" />
        </mxCell>
        <mxCell id="hCelhC14WA_BUO_WkNJN-14" style="edgeStyle=orthogonalEdgeStyle;rounded=0;orthogonalLoop=1;jettySize=auto;html=1;" parent="1" source="hCelhC14WA_BUO_WkNJN-13" target="hCelhC14WA_BUO_WkNJN-2" edge="1">
          <mxGeometry relative="1" as="geometry">
            <Array as="points">
              <mxPoint x="360" y="365" />
              <mxPoint x="360" y="365" />
            </Array>
          </mxGeometry>
        </mxCell>
        <mxCell id="hCelhC14WA_BUO_WkNJN-13" value="" style="pointerEvents=1;verticalLabelPosition=bottom;shadow=0;dashed=0;align=center;html=1;verticalAlign=top;shape=mxgraph.electrical.waveforms.sine_wave;" parent="1" vertex="1">
          <mxGeometry x="310" y="340" width="20" height="50" as="geometry" />
        </mxCell>
        <mxCell id="hCelhC14WA_BUO_WkNJN-15" value="" style="pointerEvents=1;verticalLabelPosition=bottom;shadow=0;dashed=0;align=center;html=1;verticalAlign=top;shape=mxgraph.electrical.waveforms.sine_wave;" parent="1" vertex="1">
          <mxGeometry x="290" y="450" width="20" height="50" as="geometry" />
        </mxCell>
        <mxCell id="hCelhC14WA_BUO_WkNJN-17" style="edgeStyle=orthogonalEdgeStyle;rounded=0;orthogonalLoop=1;jettySize=auto;html=1;" parent="1" source="hCelhC14WA_BUO_WkNJN-16" target="hCelhC14WA_BUO_WkNJN-4" edge="1">
          <mxGeometry relative="1" as="geometry">
            <Array as="points">
              <mxPoint x="370" y="475" />
              <mxPoint x="370" y="475" />
            </Array>
          </mxGeometry>
        </mxCell>
        <mxCell id="hCelhC14WA_BUO_WkNJN-16" value="" style="pointerEvents=1;verticalLabelPosition=bottom;shadow=0;dashed=0;align=center;html=1;verticalAlign=top;shape=mxgraph.electrical.waveforms.sine_wave;" parent="1" vertex="1">
          <mxGeometry x="310" y="450" width="20" height="50" as="geometry" />
        </mxCell>
        <mxCell id="hCelhC14WA_BUO_WkNJN-19" style="edgeStyle=orthogonalEdgeStyle;rounded=0;orthogonalLoop=1;jettySize=auto;html=1;entryX=-0.05;entryY=0.46;entryDx=0;entryDy=0;entryPerimeter=0;" parent="1" source="hCelhC14WA_BUO_WkNJN-1" target="hCelhC14WA_BUO_WkNJN-15" edge="1">
          <mxGeometry relative="1" as="geometry" />
        </mxCell>
        <mxCell id="hCelhC14WA_BUO_WkNJN-20" value="" style="ellipse;whiteSpace=wrap;html=1;aspect=fixed;" parent="1" vertex="1">
          <mxGeometry x="507" y="260" width="320" height="320" as="geometry" />
        </mxCell>
        <mxCell id="hCelhC14WA_BUO_WkNJN-25" style="edgeStyle=orthogonalEdgeStyle;rounded=0;orthogonalLoop=1;jettySize=auto;html=1;entryX=0.5;entryY=0;entryDx=0;entryDy=0;" parent="1" source="hCelhC14WA_BUO_WkNJN-21" target="hCelhC14WA_BUO_WkNJN-23" edge="1">
          <mxGeometry relative="1" as="geometry" />
        </mxCell>
        <mxCell id="hCelhC14WA_BUO_WkNJN-31" value="R/W&lt;div&gt;Uni&lt;/div&gt;" style="edgeLabel;html=1;align=center;verticalAlign=middle;resizable=0;points=[];" parent="hCelhC14WA_BUO_WkNJN-25" vertex="1" connectable="0">
          <mxGeometry x="-0.3333" y="3" relative="1" as="geometry">
            <mxPoint as="offset" />
          </mxGeometry>
        </mxCell>
        <mxCell id="hCelhC14WA_BUO_WkNJN-21" value="Input&lt;div&gt;Agent&amp;nbsp;&lt;/div&gt;&lt;div&gt;Handler&lt;/div&gt;" style="shape=cylinder3;whiteSpace=wrap;html=1;boundedLbl=1;backgroundOutline=1;size=15;" parent="1" vertex="1">
          <mxGeometry x="530" y="360" width="50" height="90" as="geometry" />
        </mxCell>
        <mxCell id="hCelhC14WA_BUO_WkNJN-22" value="Output&lt;div&gt;Agent&lt;/div&gt;&lt;div&gt;Handler&lt;/div&gt;" style="shape=cylinder3;whiteSpace=wrap;html=1;boundedLbl=1;backgroundOutline=1;size=15;" parent="1" vertex="1">
          <mxGeometry x="642" y="470" width="50" height="90" as="geometry" />
        </mxCell>
        <mxCell id="hCelhC14WA_BUO_WkNJN-34" style="edgeStyle=orthogonalEdgeStyle;rounded=0;orthogonalLoop=1;jettySize=auto;html=1;" parent="1" source="hCelhC14WA_BUO_WkNJN-23" target="hCelhC14WA_BUO_WkNJN-22" edge="1">
          <mxGeometry relative="1" as="geometry" />
        </mxCell>
        <mxCell id="hCelhC14WA_BUO_WkNJN-23" value="The Memory" style="shape=process;whiteSpace=wrap;html=1;backgroundOutline=1;" parent="1" vertex="1">
          <mxGeometry x="660" y="345" width="120" height="60" as="geometry" />
        </mxCell>
        <mxCell id="hCelhC14WA_BUO_WkNJN-24" value="&lt;font style=&quot;font-size: 19px;&quot;&gt;Core&lt;/font&gt;" style="text;html=1;align=center;verticalAlign=middle;whiteSpace=wrap;rounded=0;" parent="1" vertex="1">
          <mxGeometry x="637" y="280" width="60" height="30" as="geometry" />
        </mxCell>
        <mxCell id="hCelhC14WA_BUO_WkNJN-33" style="edgeStyle=orthogonalEdgeStyle;rounded=0;orthogonalLoop=1;jettySize=auto;html=1;entryX=0;entryY=0.5;entryDx=0;entryDy=0;entryPerimeter=0;" parent="1" source="hCelhC14WA_BUO_WkNJN-4" target="hCelhC14WA_BUO_WkNJN-21" edge="1">
          <mxGeometry relative="1" as="geometry" />
        </mxCell>
        <mxCell id="hCelhC14WA_BUO_WkNJN-36" value="Output&lt;div&gt;Agent&lt;/div&gt;&lt;div&gt;#X&lt;/div&gt;" style="shape=dataStorage;whiteSpace=wrap;html=1;fixedSize=1;" parent="1" vertex="1">
          <mxGeometry x="390" y="570" width="80" height="60" as="geometry" />
        </mxCell>
        <mxCell id="hCelhC14WA_BUO_WkNJN-37" value="Output&lt;div&gt;Agent&lt;/div&gt;&lt;div&gt;#Y&lt;/div&gt;" style="shape=dataStorage;whiteSpace=wrap;html=1;fixedSize=1;" parent="1" vertex="1">
          <mxGeometry x="390" y="650" width="80" height="60" as="geometry" />
        </mxCell>
        <mxCell id="hCelhC14WA_BUO_WkNJN-38" style="edgeStyle=orthogonalEdgeStyle;rounded=0;orthogonalLoop=1;jettySize=auto;html=1;entryX=0.788;entryY=0.517;entryDx=0;entryDy=0;entryPerimeter=0;" parent="1" source="hCelhC14WA_BUO_WkNJN-22" target="hCelhC14WA_BUO_WkNJN-36" edge="1">
          <mxGeometry relative="1" as="geometry">
            <Array as="points">
              <mxPoint x="667" y="601" />
            </Array>
          </mxGeometry>
        </mxCell>
        <mxCell id="hCelhC14WA_BUO_WkNJN-40" style="edgeStyle=orthogonalEdgeStyle;rounded=0;orthogonalLoop=1;jettySize=auto;html=1;entryX=0.813;entryY=0.45;entryDx=0;entryDy=0;entryPerimeter=0;" parent="1" source="hCelhC14WA_BUO_WkNJN-22" target="hCelhC14WA_BUO_WkNJN-37" edge="1">
          <mxGeometry relative="1" as="geometry">
            <Array as="points">
              <mxPoint x="667" y="677" />
            </Array>
          </mxGeometry>
        </mxCell>
        <mxCell id="hCelhC14WA_BUO_WkNJN-47" style="edgeStyle=orthogonalEdgeStyle;rounded=0;orthogonalLoop=1;jettySize=auto;html=1;" parent="1" source="hCelhC14WA_BUO_WkNJN-43" target="hCelhC14WA_BUO_WkNJN-1" edge="1">
          <mxGeometry relative="1" as="geometry" />
        </mxCell>
        <mxCell id="hCelhC14WA_BUO_WkNJN-43" value="" style="pointerEvents=1;verticalLabelPosition=bottom;shadow=0;dashed=0;align=center;html=1;verticalAlign=top;shape=mxgraph.electrical.waveforms.sine_wave;" parent="1" vertex="1">
          <mxGeometry x="280" y="575" width="20" height="50" as="geometry" />
        </mxCell>
        <mxCell id="hCelhC14WA_BUO_WkNJN-44" value="" style="pointerEvents=1;verticalLabelPosition=bottom;shadow=0;dashed=0;align=center;html=1;verticalAlign=top;shape=mxgraph.electrical.waveforms.sine_wave;" parent="1" vertex="1">
          <mxGeometry x="300" y="575" width="20" height="50" as="geometry" />
        </mxCell>
        <mxCell id="hCelhC14WA_BUO_WkNJN-46" style="edgeStyle=orthogonalEdgeStyle;rounded=0;orthogonalLoop=1;jettySize=auto;html=1;entryX=1.1;entryY=0.54;entryDx=0;entryDy=0;entryPerimeter=0;" parent="1" source="hCelhC14WA_BUO_WkNJN-36" target="hCelhC14WA_BUO_WkNJN-44" edge="1">
          <mxGeometry relative="1" as="geometry">
            <Array as="points">
              <mxPoint x="330" y="600" />
              <mxPoint x="330" y="602" />
            </Array>
          </mxGeometry>
        </mxCell>
        <mxCell id="hCelhC14WA_BUO_WkNJN-55" style="edgeStyle=orthogonalEdgeStyle;rounded=0;orthogonalLoop=1;jettySize=auto;html=1;" parent="1" source="hCelhC14WA_BUO_WkNJN-50" target="hCelhC14WA_BUO_WkNJN-1" edge="1">
          <mxGeometry relative="1" as="geometry" />
        </mxCell>
        <mxCell id="hCelhC14WA_BUO_WkNJN-50" value="" style="pointerEvents=1;verticalLabelPosition=bottom;shadow=0;dashed=0;align=center;html=1;verticalAlign=top;shape=mxgraph.electrical.waveforms.sine_wave;" parent="1" vertex="1">
          <mxGeometry x="280" y="660" width="20" height="50" as="geometry" />
        </mxCell>
        <mxCell id="hCelhC14WA_BUO_WkNJN-51" value="" style="pointerEvents=1;verticalLabelPosition=bottom;shadow=0;dashed=0;align=center;html=1;verticalAlign=top;shape=mxgraph.electrical.waveforms.sine_wave;" parent="1" vertex="1">
          <mxGeometry x="300" y="660" width="20" height="50" as="geometry" />
        </mxCell>
        <mxCell id="hCelhC14WA_BUO_WkNJN-54" style="edgeStyle=orthogonalEdgeStyle;rounded=0;orthogonalLoop=1;jettySize=auto;html=1;entryX=1;entryY=0.4;entryDx=0;entryDy=0;entryPerimeter=0;" parent="1" source="hCelhC14WA_BUO_WkNJN-37" target="hCelhC14WA_BUO_WkNJN-51" edge="1">
          <mxGeometry relative="1" as="geometry" />
        </mxCell>
      </root>
    </mxGraphModel>
  </diagram>
</mxfile>
